0
SECTION
2 
ENTITIES
0
LINE
8
Outline
10
165
20
-101.9
11
165.08567
21
-101.89878
0
LINE
8
Outline
10
165.08567
20
-101.89878
11
165.17127
21
-101.89511
0
LINE
8
Outline
10
165.17127
20
-101.89511
11
165.25673
21
-101.889
0
LINE
8
Outline
10
165.25673
20
-101.889
11
165.34197
21
-101.88045
0
LINE
8
Outline
10
165.34197
20
-101.88045
11
165.42694
21
-101.86946
0
LINE
8
Outline
10
165.42694
20
-101.86946
11
165.51157
21
-101.85606
0
LINE
8
Outline
10
165.51157
20
-101.85606
11
165.59577
21
-101.84025
0
LINE
8
Outline
10
165.59577
20
-101.84025
11
165.67949
21
-101.82204
0
LINE
8
Outline
10
165.67949
20
-101.82204
11
165.76266
21
-101.80144
0
LINE
8
Outline
10
165.76266
20
-101.80144
11
165.8452
21
-101.77848
0
LINE
8
Outline
10
165.8452
20
-101.77848
11
165.92705
21
-101.75317
0
LINE
8
Outline
10
165.92705
20
-101.75317
11
166.00815
21
-101.72553
0
LINE
8
Outline
10
166.00815
20
-101.72553
11
166.08842
21
-101.69559
0
LINE
8
Outline
10
166.08842
20
-101.69559
11
166.16781
21
-101.66337
0
LINE
8
Outline
10
166.16781
20
-101.66337
11
166.24625
21
-101.6289
0
LINE
8
Outline
10
166.24625
20
-101.6289
11
166.32366
21
-101.5922
0
LINE
8
Outline
10
166.32366
20
-101.5922
11
166.4
21
-101.5533
0
LINE
8
Outline
10
166.4
20
-101.5533
11
166.4752
21
-101.51224
0
LINE
8
Outline
10
166.4752
20
-101.51224
11
166.54919
21
-101.46905
0
LINE
8
Outline
10
166.54919
20
-101.46905
11
166.62192
21
-101.42376
0
LINE
8
Outline
10
166.62192
20
-101.42376
11
166.69333
21
-101.37642
0
LINE
8
Outline
10
166.69333
20
-101.37642
11
166.76336
21
-101.32705
0
LINE
8
Outline
10
166.76336
20
-101.32705
11
166.83194
21
-101.27571
0
LINE
8
Outline
10
166.83194
20
-101.27571
11
166.89904
21
-101.22242
0
LINE
8
Outline
10
166.89904
20
-101.22242
11
166.96458
21
-101.16725
0
LINE
8
Outline
10
166.96458
20
-101.16725
11
167.02852
21
-101.11022
0
LINE
8
Outline
10
167.02852
20
-101.11022
11
167.09081
21
-101.0514
0
LINE
8
Outline
10
167.09081
20
-101.0514
11
167.1514
21
-100.99081
0
LINE
8
Outline
10
167.1514
20
-100.99081
11
167.21022
21
-100.92852
0
LINE
8
Outline
10
167.21022
20
-100.92852
11
167.26725
21
-100.86458
0
LINE
8
Outline
10
167.26725
20
-100.86458
11
167.32242
21
-100.79904
0
LINE
8
Outline
10
167.32242
20
-100.79904
11
167.37571
21
-100.73194
0
LINE
8
Outline
10
167.37571
20
-100.73194
11
167.42705
21
-100.66336
0
LINE
8
Outline
10
167.42705
20
-100.66336
11
167.47642
21
-100.59333
0
LINE
8
Outline
10
167.47642
20
-100.59333
11
167.52376
21
-100.52192
0
LINE
8
Outline
10
167.52376
20
-100.52192
11
167.56905
21
-100.44919
0
LINE
8
Outline
10
167.56905
20
-100.44919
11
167.61224
21
-100.3752
0
LINE
8
Outline
10
167.61224
20
-100.3752
11
167.6533
21
-100.3
0
LINE
8
Outline
10
167.6533
20
-100.3
11
167.6922
21
-100.22366
0
LINE
8
Outline
10
167.6922
20
-100.22366
11
167.7289
21
-100.14625
0
LINE
8
Outline
10
167.7289
20
-100.14625
11
167.76337
21
-100.06781
0
LINE
8
Outline
10
167.76337
20
-100.06781
11
167.7956
21
-99.98842
0
LINE
8
Outline
10
167.7956
20
-99.98842
11
167.82552
21
-99.90815
0
LINE
8
Outline
10
167.82552
20
-99.90815
11
167.85316
21
-99.82705
0
LINE
8
Outline
10
167.85316
20
-99.82705
11
167.87848
21
-99.7452
0
LINE
8
Outline
10
167.87848
20
-99.7452
11
167.90144
21
-99.66266
0
LINE
8
Outline
10
167.90144
20
-99.66266
11
167.92204
21
-99.57949
0
LINE
8
Outline
10
167.92204
20
-99.57949
11
167.94024
21
-99.49577
0
LINE
8
Outline
10
167.94024
20
-99.49577
11
167.95606
21
-99.41157
0
LINE
8
Outline
10
167.95606
20
-99.41157
11
167.96946
21
-99.32694
0
LINE
8
Outline
10
167.96946
20
-99.32694
11
167.98044
21
-99.24197
0
LINE
8
Outline
10
167.98044
20
-99.24197
11
167.989
21
-99.15673
0
LINE
8
Outline
10
167.989
20
-99.15673
11
167.99512
21
-99.07127
0
LINE
8
Outline
10
167.99512
20
-99.07127
11
167.99878
21
-98.98567
0
LINE
8
Outline
10
167.99878
20
-98.98567
11
168
21
-98.9
0
LINE
8
Outline
10
168
20
-98.9
11
168
21
-48.9
0
LINE
8
Outline
10
168
20
-48.9
11
167.99878
21
-48.81433
0
LINE
8
Outline
10
167.99878
20
-48.81433
11
167.99512
21
-48.72873
0
LINE
8
Outline
10
167.99512
20
-48.72873
11
167.989
21
-48.64327
0
LINE
8
Outline
10
167.989
20
-48.64327
11
167.98044
21
-48.55803
0
LINE
8
Outline
10
167.98044
20
-48.55803
11
167.96946
21
-48.47306
0
LINE
8
Outline
10
167.96946
20
-48.47306
11
167.95606
21
-48.38843
0
LINE
8
Outline
10
167.95606
20
-48.38843
11
167.94024
21
-48.30423
0
LINE
8
Outline
10
167.94024
20
-48.30423
11
167.92204
21
-48.22051
0
LINE
8
Outline
10
167.92204
20
-48.22051
11
167.90144
21
-48.13734
0
LINE
8
Outline
10
167.90144
20
-48.13734
11
167.87848
21
-48.0548
0
LINE
8
Outline
10
167.87848
20
-48.0548
11
167.85316
21
-47.97295
0
LINE
8
Outline
10
167.85316
20
-47.97295
11
167.82552
21
-47.89185
0
LINE
8
Outline
10
167.82552
20
-47.89185
11
167.7956
21
-47.81158
0
LINE
8
Outline
10
167.7956
20
-47.81158
11
167.76337
21
-47.73219
0
LINE
8
Outline
10
167.76337
20
-47.73219
11
167.7289
21
-47.65375
0
LINE
8
Outline
10
167.7289
20
-47.65375
11
167.6922
21
-47.57634
0
LINE
8
Outline
10
167.6922
20
-47.57634
11
167.6533
21
-47.5
0
LINE
8
Outline
10
167.6533
20
-47.5
11
167.61224
21
-47.4248
0
LINE
8
Outline
10
167.61224
20
-47.4248
11
167.56905
21
-47.35081
0
LINE
8
Outline
10
167.56905
20
-47.35081
11
167.52376
21
-47.27808
0
LINE
8
Outline
10
167.52376
20
-47.27808
11
167.47642
21
-47.20667
0
LINE
8
Outline
10
167.47642
20
-47.20667
11
167.42705
21
-47.13664
0
LINE
8
Outline
10
167.42705
20
-47.13664
11
167.37571
21
-47.06806
0
LINE
8
Outline
10
167.37571
20
-47.06806
11
167.32242
21
-47.00096
0
LINE
8
Outline
10
167.32242
20
-47.00096
11
167.26725
21
-46.93542
0
LINE
8
Outline
10
167.26725
20
-46.93542
11
167.21022
21
-46.87148
0
LINE
8
Outline
10
167.21022
20
-46.87148
11
167.1514
21
-46.80919
0
LINE
8
Outline
10
167.1514
20
-46.80919
11
167.09081
21
-46.7486
0
LINE
8
Outline
10
167.09081
20
-46.7486
11
167.02852
21
-46.68978
0
LINE
8
Outline
10
167.02852
20
-46.68978
11
166.96458
21
-46.63275
0
LINE
8
Outline
10
166.96458
20
-46.63275
11
166.89904
21
-46.57758
0
LINE
8
Outline
10
166.89904
20
-46.57758
11
166.83194
21
-46.52429
0
LINE
8
Outline
10
166.83194
20
-46.52429
11
166.76336
21
-46.47295
0
LINE
8
Outline
10
166.76336
20
-46.47295
11
166.69333
21
-46.42358
0
LINE
8
Outline
10
166.69333
20
-46.42358
11
166.62192
21
-46.37624
0
LINE
8
Outline
10
166.62192
20
-46.37624
11
166.54919
21
-46.33095
0
LINE
8
Outline
10
166.54919
20
-46.33095
11
166.4752
21
-46.28776
0
LINE
8
Outline
10
166.4752
20
-46.28776
11
166.4
21
-46.2467
0
LINE
8
Outline
10
166.4
20
-46.2467
11
166.32366
21
-46.2078
0
LINE
8
Outline
10
166.32366
20
-46.2078
11
166.24625
21
-46.1711
0
LINE
8
Outline
10
166.24625
20
-46.1711
11
166.16781
21
-46.13663
0
LINE
8
Outline
10
166.16781
20
-46.13663
11
166.08842
21
-46.10441
0
LINE
8
Outline
10
166.08842
20
-46.10441
11
166.00815
21
-46.07447
0
LINE
8
Outline
10
166.00815
20
-46.07447
11
165.92705
21
-46.04683
0
LINE
8
Outline
10
165.92705
20
-46.04683
11
165.8452
21
-46.02152
0
LINE
8
Outline
10
165.8452
20
-46.02152
11
165.76266
21
-45.99856
0
LINE
8
Outline
10
165.76266
20
-45.99856
11
165.67949
21
-45.97796
0
LINE
8
Outline
10
165.67949
20
-45.97796
11
165.59577
21
-45.95975
0
LINE
8
Outline
10
165.59577
20
-45.95975
11
165.51157
21
-45.94394
0
LINE
8
Outline
10
165.51157
20
-45.94394
11
165.42694
21
-45.93054
0
LINE
8
Outline
10
165.42694
20
-45.93054
11
165.34197
21
-45.91955
0
LINE
8
Outline
10
165.34197
20
-45.91955
11
165.25673
21
-45.911
0
LINE
8
Outline
10
165.25673
20
-45.911
11
165.17127
21
-45.90489
0
LINE
8
Outline
10
165.17127
20
-45.90489
11
165.08567
21
-45.90122
0
LINE
8
Outline
10
165.08567
20
-45.90122
11
165
21
-45.9
0
LINE
8
Outline
10
165
20
-45.9
11
79.09999
21
-45.9
0
LINE
8
Outline
10
79.09999
20
-45.9
11
79.01432
21
-45.90122
0
LINE
8
Outline
10
79.01432
20
-45.90122
11
78.92872
21
-45.90489
0
LINE
8
Outline
10
78.92872
20
-45.90489
11
78.84326
21
-45.911
0
LINE
8
Outline
10
78.84326
20
-45.911
11
78.75802
21
-45.91955
0
LINE
8
Outline
10
78.75802
20
-45.91955
11
78.67305
21
-45.93054
0
LINE
8
Outline
10
78.67305
20
-45.93054
11
78.58842
21
-45.94394
0
LINE
8
Outline
10
78.58842
20
-45.94394
11
78.50422
21
-45.95975
0
LINE
8
Outline
10
78.50422
20
-45.95975
11
78.4205
21
-45.97796
0
LINE
8
Outline
10
78.4205
20
-45.97796
11
78.33733
21
-45.99856
0
LINE
8
Outline
10
78.33733
20
-45.99856
11
78.25479
21
-46.02152
0
LINE
8
Outline
10
78.25479
20
-46.02152
11
78.17294
21
-46.04683
0
LINE
8
Outline
10
78.17294
20
-46.04683
11
78.09184
21
-46.07447
0
LINE
8
Outline
10
78.09184
20
-46.07447
11
78.01157
21
-46.10441
0
LINE
8
Outline
10
78.01157
20
-46.10441
11
77.93218
21
-46.13663
0
LINE
8
Outline
10
77.93218
20
-46.13663
11
77.85374
21
-46.1711
0
LINE
8
Outline
10
77.85374
20
-46.1711
11
77.77633
21
-46.2078
0
LINE
8
Outline
10
77.77633
20
-46.2078
11
77.69999
21
-46.2467
0
LINE
8
Outline
10
77.69999
20
-46.2467
11
77.62479
21
-46.28776
0
LINE
8
Outline
10
77.62479
20
-46.28776
11
77.5508
21
-46.33095
0
LINE
8
Outline
10
77.5508
20
-46.33095
11
77.47807
21
-46.37624
0
LINE
8
Outline
10
77.47807
20
-46.37624
11
77.40666
21
-46.42358
0
LINE
8
Outline
10
77.40666
20
-46.42358
11
77.33663
21
-46.47295
0
LINE
8
Outline
10
77.33663
20
-46.47295
11
77.26805
21
-46.52429
0
LINE
8
Outline
10
77.26805
20
-46.52429
11
77.20095
21
-46.57758
0
LINE
8
Outline
10
77.20095
20
-46.57758
11
77.13541
21
-46.63275
0
LINE
8
Outline
10
77.13541
20
-46.63275
11
77.07147
21
-46.68978
0
LINE
8
Outline
10
77.07147
20
-46.68978
11
77.00918
21
-46.7486
0
LINE
8
Outline
10
77.00918
20
-46.7486
11
76.94859
21
-46.80919
0
LINE
8
Outline
10
76.94859
20
-46.80919
11
76.88977
21
-46.87148
0
LINE
8
Outline
10
76.88977
20
-46.87148
11
76.83274
21
-46.93542
0
LINE
8
Outline
10
76.83274
20
-46.93542
11
76.77757
21
-47.00096
0
LINE
8
Outline
10
76.77757
20
-47.00096
11
76.72428
21
-47.06806
0
LINE
8
Outline
10
76.72428
20
-47.06806
11
76.67294
21
-47.13664
0
LINE
8
Outline
10
76.67294
20
-47.13664
11
76.62357
21
-47.20667
0
LINE
8
Outline
10
76.62357
20
-47.20667
11
76.57623
21
-47.27808
0
LINE
8
Outline
10
76.57623
20
-47.27808
11
76.53094
21
-47.35081
0
LINE
8
Outline
10
76.53094
20
-47.35081
11
76.48775
21
-47.4248
0
LINE
8
Outline
10
76.48775
20
-47.4248
11
76.44669
21
-47.5
0
LINE
8
Outline
10
76.44669
20
-47.5
11
76.40779
21
-47.57634
0
LINE
8
Outline
10
76.40779
20
-47.57634
11
76.37109
21
-47.65375
0
LINE
8
Outline
10
76.37109
20
-47.65375
11
76.33662
21
-47.73219
0
LINE
8
Outline
10
76.33662
20
-47.73219
11
76.3044
21
-47.81158
0
LINE
8
Outline
10
76.3044
20
-47.81158
11
76.27446
21
-47.89185
0
LINE
8
Outline
10
76.27446
20
-47.89185
11
76.24682
21
-47.97295
0
LINE
8
Outline
10
76.24682
20
-47.97295
11
76.22151
21
-48.0548
0
LINE
8
Outline
10
76.22151
20
-48.0548
11
76.19855
21
-48.13734
0
LINE
8
Outline
10
76.19855
20
-48.13734
11
76.17795
21
-48.22051
0
LINE
8
Outline
10
76.17795
20
-48.22051
11
76.15974
21
-48.30423
0
LINE
8
Outline
10
76.15974
20
-48.30423
11
76.14393
21
-48.38843
0
LINE
8
Outline
10
76.14393
20
-48.38843
11
76.13053
21
-48.47306
0
LINE
8
Outline
10
76.13053
20
-48.47306
11
76.11954
21
-48.55803
0
LINE
8
Outline
10
76.11954
20
-48.55803
11
76.11099
21
-48.64327
0
LINE
8
Outline
10
76.11099
20
-48.64327
11
76.10488
21
-48.72873
0
LINE
8
Outline
10
76.10488
20
-48.72873
11
76.10121
21
-48.81433
0
LINE
8
Outline
10
76.10121
20
-48.81433
11
76.09999
21
-48.9
0
LINE
8
Outline
10
76.09999
20
-48.9
11
76.09999
21
-98.9
0
LINE
8
Outline
10
76.09999
20
-98.9
11
76.10121
21
-98.98567
0
LINE
8
Outline
10
76.10121
20
-98.98567
11
76.10488
21
-99.07127
0
LINE
8
Outline
10
76.10488
20
-99.07127
11
76.11099
21
-99.15673
0
LINE
8
Outline
10
76.11099
20
-99.15673
11
76.11954
21
-99.24197
0
LINE
8
Outline
10
76.11954
20
-99.24197
11
76.13053
21
-99.32694
0
LINE
8
Outline
10
76.13053
20
-99.32694
11
76.14393
21
-99.41157
0
LINE
8
Outline
10
76.14393
20
-99.41157
11
76.15974
21
-99.49577
0
LINE
8
Outline
10
76.15974
20
-99.49577
11
76.17795
21
-99.57949
0
LINE
8
Outline
10
76.17795
20
-99.57949
11
76.19855
21
-99.66266
0
LINE
8
Outline
10
76.19855
20
-99.66266
11
76.22151
21
-99.7452
0
LINE
8
Outline
10
76.22151
20
-99.7452
11
76.24682
21
-99.82705
0
LINE
8
Outline
10
76.24682
20
-99.82705
11
76.27446
21
-99.90815
0
LINE
8
Outline
10
76.27446
20
-99.90815
11
76.3044
21
-99.98842
0
LINE
8
Outline
10
76.3044
20
-99.98842
11
76.33662
21
-100.06781
0
LINE
8
Outline
10
76.33662
20
-100.06781
11
76.37109
21
-100.14625
0
LINE
8
Outline
10
76.37109
20
-100.14625
11
76.40779
21
-100.22366
0
LINE
8
Outline
10
76.40779
20
-100.22366
11
76.44669
21
-100.3
0
LINE
8
Outline
10
76.44669
20
-100.3
11
76.48775
21
-100.3752
0
LINE
8
Outline
10
76.48775
20
-100.3752
11
76.53094
21
-100.44919
0
LINE
8
Outline
10
76.53094
20
-100.44919
11
76.57623
21
-100.52192
0
LINE
8
Outline
10
76.57623
20
-100.52192
11
76.62357
21
-100.59333
0
LINE
8
Outline
10
76.62357
20
-100.59333
11
76.67294
21
-100.66336
0
LINE
8
Outline
10
76.67294
20
-100.66336
11
76.72428
21
-100.73194
0
LINE
8
Outline
10
76.72428
20
-100.73194
11
76.77757
21
-100.79904
0
LINE
8
Outline
10
76.77757
20
-100.79904
11
76.83274
21
-100.86458
0
LINE
8
Outline
10
76.83274
20
-100.86458
11
76.88977
21
-100.92852
0
LINE
8
Outline
10
76.88977
20
-100.92852
11
76.94859
21
-100.99081
0
LINE
8
Outline
10
76.94859
20
-100.99081
11
77.00918
21
-101.0514
0
LINE
8
Outline
10
77.00918
20
-101.0514
11
77.07147
21
-101.11022
0
LINE
8
Outline
10
77.07147
20
-101.11022
11
77.13541
21
-101.16725
0
LINE
8
Outline
10
77.13541
20
-101.16725
11
77.20095
21
-101.22242
0
LINE
8
Outline
10
77.20095
20
-101.22242
11
77.26805
21
-101.27571
0
LINE
8
Outline
10
77.26805
20
-101.27571
11
77.33663
21
-101.32705
0
LINE
8
Outline
10
77.33663
20
-101.32705
11
77.40666
21
-101.37642
0
LINE
8
Outline
10
77.40666
20
-101.37642
11
77.47807
21
-101.42376
0
LINE
8
Outline
10
77.47807
20
-101.42376
11
77.5508
21
-101.46905
0
LINE
8
Outline
10
77.5508
20
-101.46905
11
77.62479
21
-101.51224
0
LINE
8
Outline
10
77.62479
20
-101.51224
11
77.69999
21
-101.5533
0
LINE
8
Outline
10
77.69999
20
-101.5533
11
77.77633
21
-101.5922
0
LINE
8
Outline
10
77.77633
20
-101.5922
11
77.85374
21
-101.6289
0
LINE
8
Outline
10
77.85374
20
-101.6289
11
77.93218
21
-101.66337
0
LINE
8
Outline
10
77.93218
20
-101.66337
11
78.01157
21
-101.69559
0
LINE
8
Outline
10
78.01157
20
-101.69559
11
78.09184
21
-101.72553
0
LINE
8
Outline
10
78.09184
20
-101.72553
11
78.17294
21
-101.75317
0
LINE
8
Outline
10
78.17294
20
-101.75317
11
78.25479
21
-101.77848
0
LINE
8
Outline
10
78.25479
20
-101.77848
11
78.33733
21
-101.80144
0
LINE
8
Outline
10
78.33733
20
-101.80144
11
78.4205
21
-101.82204
0
LINE
8
Outline
10
78.4205
20
-101.82204
11
78.50422
21
-101.84025
0
LINE
8
Outline
10
78.50422
20
-101.84025
11
78.58842
21
-101.85606
0
LINE
8
Outline
10
78.58842
20
-101.85606
11
78.67305
21
-101.86946
0
LINE
8
Outline
10
78.67305
20
-101.86946
11
78.75802
21
-101.88045
0
LINE
8
Outline
10
78.75802
20
-101.88045
11
78.84326
21
-101.889
0
LINE
8
Outline
10
78.84326
20
-101.889
11
78.92872
21
-101.89511
0
LINE
8
Outline
10
78.92872
20
-101.89511
11
79.01432
21
-101.89878
0
LINE
8
Outline
10
79.01432
20
-101.89878
11
79.09999
21
-101.9
0
LINE
8
Outline
10
79.09999
20
-101.9
11
165
21
-101.9
0
LINE
8
Outline
10
165
20
-101.9
11
165
21
-101.9
0
ENDSEC
0
EOF
